<svg xmlns="http://www.w3.org/2000/svg" xmlns:xlink="http://www.w3.org/1999/xlink"><defs><style>.sprite-symbol-usage{display:none}.sprite-symbol-usage:target{display:inline}</style><symbol viewBox="0 0 500 500" id="0"><path fill="none" stroke="#C8C8C8" stroke-width="10" stroke-linecap="round" stroke-linejoin="round" stroke-miterlimit="10" d="M391.62 152.97c5.5 0 10-4.5 10-10v-22.81c0-5.5-4.5-10-10-10H108.38c-5.5 0-10 4.5-10 10v22.81c0 5.5 4.5 10 10 10h283.24z"/><path fill="none" d="M279.66 48.84l-30.58 30.58-30.58-30.58H76.79V171.5h344.58V48.84z"/><path fill="#231F20" d="M115 375.03l135 77.94 135-77.94V144.5H115z"/><path fill="none" stroke="#C8C8C8" stroke-width="10" stroke-linecap="round" stroke-linejoin="round" stroke-miterlimit="10" d="M176.39 194.63l147.63 147.63M176.39 95.47l147.63 147.64"/></symbol><symbol viewBox="0 0 500 500" id="1"><symbol id="1_a" viewBox="-250.5 -250.36 501 501"><path fill="none" stroke="#C8C8C8" stroke-width="10" stroke-linecap="round" stroke-linejoin="round" stroke-miterlimit="10" d="M141.62 99.36c5.5 0 10 4.5 10 10v22.81c0 5.5-4.5 10-10 10h-283.23c-5.5 0-10-4.5-10-10v-22.81c0-5.5 4.5-10 10-10h283.23z"/><path fill="none" d="M29.66 203.5L-.92 172.92-31.5 203.5h-141.71V80.84h344.58V203.5z"/><path fill="#7C2B00" d="M-135-122.7L0-200.64l135 77.94v230.54h-270z"/><path fill="none" stroke="#C8C8C8" stroke-width="10" stroke-linecap="round" stroke-linejoin="round" stroke-miterlimit="10" d="M0 142.17l-28.59 40.68L0 199.36l28.59-16.51z"/><path opacity=".5" fill="#7C2B00" d="M-122.53-130.96l43.44-26.58-26.91 26.89V69.32h-16.53v-200.28zM106 69.32V-132.4l-29.52-26.73 46.04 28.16V69.32H106z"/><path opacity=".25" fill="#7C2B00" d="M-106 68.4v39.44h-16.53v-39.5m245.06 0v39.5H106V68.05"/></symbol><symbol id="1_b" viewBox="-250.5 -250.5 501 501"><path opacity=".25" d="M67.5-87.55V37.03h-135V-87.55L0-126.53z"/><path d="M73.61-65.63v173.47H-73.62V-65.63L0-108.13z"/><path d="M-45.02-47.67v93.9h17.7v-93.9h-17.7zm60.05-.3l-17.7 94.2h17.7l6.9-39.3 3.15-21.9 3 21.75 7.05 39.45h17.1l-17.55-94.2H15.03z" fill="#FFF"/><path fill="none" d="M135 99.25L0 99.36l-135-.11v-222.09L0-200.78l135 77.94z"/></symbol><use xlink:href="#1_a" width="501" height="501" x="-250.5" y="-250.36" transform="matrix(1 0 0 -1 256.5 252.334)" overflow="visible"/><use xlink:href="#1_b" width="501" height="501" x="-250.5" y="-250.5" transform="matrix(1 0 0 -1 256.5 252.334)" overflow="visible"/></symbol><symbol viewBox="0 0 500 500" id="2"><symbol id="2_a" viewBox="-250.5 -250.36 501 501"><path fill="none" stroke="#C8C8C8" stroke-width="10" stroke-linecap="round" stroke-linejoin="round" stroke-miterlimit="10" d="M141.62 99.36c5.5 0 10 4.5 10 10v22.81c0 5.5-4.5 10-10 10h-283.23c-5.5 0-10-4.5-10-10v-22.81c0-5.5 4.5-10 10-10h283.23z"/><path fill="none" d="M29.66 203.5L-.92 172.92-31.5 203.5h-141.71V80.84h344.58V203.5z"/><path fill="#7C2B00" d="M-135-122.7L0-200.64l135 77.94v230.54h-270z"/><path fill="none" stroke="#C8C8C8" stroke-width="10" stroke-linecap="round" stroke-linejoin="round" stroke-miterlimit="10" d="M0 142.17l-28.59 40.68L0 199.36l28.59-16.51z"/><path opacity=".5" fill="#7C2B00" d="M-122.53-130.96l43.44-26.58-26.91 26.89V69.32h-16.53v-200.28zM106 69.32V-132.4l-29.52-26.73 46.04 28.16V69.32H106z"/><path opacity=".25" fill="#7C2B00" d="M-106 68.4v39.44h-16.53v-39.5m245.06 0v39.5H106V68.05"/></symbol><symbol id="2_b" viewBox="-250.5 -250.5 501 501"><path opacity=".25" d="M67.5-107.55V37.03h-135v-144.58L0-146.53z"/><path d="M73.61-85.63v193.47H-73.62V-85.63L0-128.13z"/><path d="M-55.91-44.75v93.9h17.7v-93.9h-17.7zm46.7 0v93.9h17.7v-93.9h-17.7zm46.7 0v93.9h17.7v-93.9h-17.7z" fill="#FFF"/><path fill="none" d="M135 99.25L0 99.36l-135-.11v-222.09L0-200.78l135 77.94z"/><path fill="#FFF" d="M-73.62-65.63L0-108.13l73.61 42.5v-10L0-118.13l-73.62 42.5z"/></symbol><g transform="matrix(1 0 0 -1 256.5 252.335)"><use xlink:href="#2_a" width="501" height="501" x="-250.5" y="-250.36" overflow="visible"/><use xlink:href="#2_b" width="501" height="501" x="-250.5" y="-250.5" overflow="visible"/></g></symbol><symbol viewBox="0 0 500 500" id="3"><symbol id="3_a" viewBox="-250.5 -250.36 501 501"><path fill="none" stroke="#C8C8C8" stroke-width="10" stroke-linecap="round" stroke-linejoin="round" stroke-miterlimit="10" d="M141.62 99.36c5.5 0 10 4.5 10 10v22.81c0 5.5-4.5 10-10 10h-283.23c-5.5 0-10-4.5-10-10v-22.81c0-5.5 4.5-10 10-10h283.23z"/><path fill="none" d="M29.66 203.5L-.92 172.92-31.5 203.5h-141.71V80.84h344.58V203.5z"/><path fill="#7C2B00" d="M-135-122.7L0-200.64l135 77.94v230.54h-270z"/><path fill="none" stroke="#C8C8C8" stroke-width="10" stroke-linecap="round" stroke-linejoin="round" stroke-miterlimit="10" d="M0 142.17l-28.59 40.68L0 199.36l28.59-16.51z"/><path opacity=".5" fill="#7C2B00" d="M-122.53-130.96l43.44-26.58-26.91 26.89V69.32h-16.53v-200.28zM106 69.32V-132.4l-29.52-26.73 46.04 28.16V69.32H106z"/><path opacity=".25" fill="#7C2B00" d="M-106 68.4v39.44h-16.53v-39.5m245.06 0v39.5H106V68.05"/></symbol><symbol id="3_b" viewBox="-250.5 -250.5 501 501"><path opacity=".25" d="M67.5-131.67V36.36h-135v-168.03L0-170.64z"/><path d="M73.62-109.75v217.59H-73.62v-217.59L0-152.25z"/><path d="M-32.2-46.28v93.9h17.7v-93.9h-17.7zm46.7 0v93.9h17.7v-93.9H14.5zm-88.12-43.47L0-132.25l73.62 42.5v-10L0-142.25l-73.62 42.5z" fill="#FFF"/><path fill="#FFF" d="M-73.62-69.75L0-112.25l73.62 42.5v-10L0-122.25l-73.62 42.5z"/></symbol><g transform="matrix(1 0 0 -1 256.5 252.336)"><use xlink:href="#3_a" width="501" height="501" x="-250.5" y="-250.36" overflow="visible"/><use xlink:href="#3_b" width="501" height="501" x="-250.5" y="-250.5" overflow="visible"/></g></symbol><symbol viewBox="0 0 500 500" id="4"><symbol id="4_a" viewBox="-250.5 -250.36 501 501"><path fill="none" stroke="#C8C8C8" stroke-width="10" stroke-linecap="round" stroke-linejoin="round" stroke-miterlimit="10" d="M141.62 99.36c5.5 0 10 4.5 10 10v22.81c0 5.5-4.5 10-10 10h-283.23c-5.5 0-10-4.5-10-10v-22.81c0-5.5 4.5-10 10-10h283.23z"/><path fill="none" d="M29.66 203.5L-.92 172.92-31.5 203.5h-141.71V80.84h344.58V203.5z"/><path fill="#7C2B00" d="M-135-122.7L0-200.64l135 77.94v230.54h-270z"/><path fill="none" stroke="#C8C8C8" stroke-width="10" stroke-linecap="round" stroke-linejoin="round" stroke-miterlimit="10" d="M0 142.17l-28.59 40.68L0 199.36l28.59-16.51z"/><path opacity=".5" fill="#7C2B00" d="M-122.53-130.96l43.44-26.58-26.91 26.89V69.32h-16.53v-200.28zM106 69.32V-132.4l-29.52-26.73 46.04 28.16V69.32H106z"/><path opacity=".25" fill="#7C2B00" d="M-106 68.4v39.44h-16.53v-39.5m245.06 0v39.5H106V68.05"/></symbol><symbol id="4_b" viewBox="-250.5 -250.5 501 501"><path opacity=".25" d="M67.5-161.81V36.36h-135v-198.17L0-200.78z"/><path d="M73.62-139.89V107.9H-73.62v-247.79L0-182.39z"/><path fill="#FFF" d="M-.92 64.7l13.73-42.25h44.42L21.29-3.66l13.73-42.25L-.92-19.8l-35.94-26.11 13.73 42.25-35.94 26.11h44.42zm-72.7-166.98L0-144.78l73.62 42.5v-10L0-154.78l-73.62 42.5z"/><path fill="#FFF" d="M-73.62-82.28L0-124.78l73.62 42.5v-10L0-134.78l-73.62 42.5z"/><path fill="#FFF" d="M-73.62-62.28L0-104.78l73.62 42.5v-10L0-114.78l-73.62 42.5z"/><path fill="#FFF" d="M38.98-92.28L0-69.78l-38.98-22.5v10L0-59.78l38.98-22.5z"/></symbol><g transform="matrix(1 0 0 -1 256.5 252.334)"><use xlink:href="#4_a" width="501" height="501" x="-250.5" y="-250.36" overflow="visible"/><use xlink:href="#4_b" width="501" height="501" x="-250.5" y="-250.5" overflow="visible"/></g></symbol><symbol viewBox="0 0 500 500" id="5"><symbol id="5_b" viewBox="-250.5 -250.36 501 501"><path fill="none" stroke="#C8C8C8" stroke-width="10" stroke-linecap="round" stroke-linejoin="round" stroke-miterlimit="10" d="M141.83 99.36c5.5 0 10 4.5 10 10v22.81c0 5.5-4.5 10-10 10H-141.4c-5.5 0-10-4.5-10-10v-22.81c0-5.5 4.5-10 10-10h283.23z"/><path fill="#7F6029" d="M-135-92.59L0-170.53l135 77.94v200.43h-270z"/><path fill="#A57D35" d="M122.53 107.84V70.38h-245.06v38.52"/><path fill="#BC783C" d="M-122.53-129.9L0-200.64l122.53 70.74V70.38h-245.06z"/><path opacity=".25" fill="#231F20" d="M-122.53 39.7H-135v10.75h12.47zm257.53 0h-12.47v10.75H135z"/><path fill="#E5AD4A" d="M124.4-128.82L0-200.64l-124.41 71.82L0-204.74z"/><path fill="#BC783C" d="M-122.53-129.9l43.44-26.58-26.91 26.89V70.38h-16.53V-129.9zM106 70.38v-201.72l-29.52-26.73 46.04 28.16V70.38H106z"/><path fill="none" stroke="#231F20" stroke-width="10" stroke-linejoin="round" stroke-miterlimit="10" d="M74.36 56.55h6.32c3.48 0 6.32 4.5 6.32 10v22.81c0 5.5-4.5 10-10 10H-76.57c-5.5 0-10-4.5-10-10V66.55c0-5.5 2.79-10 6.19-10h6.19m90.69 85.62h-32.57" opacity=".25"/><path fill="none" stroke="#C8C8C8" stroke-width="10" stroke-linecap="round" stroke-linejoin="round" stroke-miterlimit="10" d="M0 142.17v-22.81m0 22.81l-28.6 40.68L0 199.36l28.59-16.51z"/><path fill="none" stroke="#C8C8C8" stroke-width="10" stroke-linejoin="round" stroke-miterlimit="10" d="M74.36 76.55h6.32c3.48 0 6.32 4.5 6.32 10v22.81c0 5.5-4.5 10-10 10H-76.57c-5.5 0-10-4.5-10-10V86.55c0-5.5 2.79-10 6.19-10h6.19"/><path opacity=".25" fill="#BC783C" d="M-106 69.46v39.44h-16.53V69.4m245.06 0v39.5H106V69.12"/><path opacity=".5" fill="#BC783C" d="M-30.71-154.88L0-137.15l30.71-17.73v-28.03L0-200.64l-30.71 17.73z"/></symbol><symbol id="5_c" viewBox="-250.5 -250.5 501 501"><path opacity=".25" d="M67.5-87.55V37.03h-135V-87.55L0-126.53z"/><path d="M73.61-65.63v173.47H-73.62V-65.63L0-108.13z"/><path d="M-45.02-47.67v93.9h17.7v-93.9h-17.7zm60.05-.3l-17.7 94.2h17.7l6.9-39.3 3.15-21.9 3 21.75 7.05 39.45h17.1l-17.55-94.2H15.03z" fill="#FFF"/><path fill="none" d="M135 99.25L0 99.36l-135-.11v-222.09L0-200.78l135 77.94z"/></symbol><symbol id="5_a" viewBox="-251.5 -251.36 503 503"><path fill="none" stroke="#231F20" stroke-width="3" stroke-miterlimit="10" d="M250-249.86h-500v500h500zm-500 500l500-500m0 500l-500-500"/><path fill="none" stroke="red" stroke-width="10" stroke-miterlimit="10" d="M-173.21 99.36L0 199.36l173.21-100v-200L0-200.64l-173.21 100z"/></symbol><g transform="matrix(1 0 0 -1 256.5 252.335)"><use xlink:href="#5_b" width="501" height="501" x="-250.5" y="-250.36" overflow="visible"/><use xlink:href="#5_c" width="501" height="501" x="-250.5" y="-250.5" overflow="visible"/></g></symbol><symbol viewBox="0 0 500 500" id="6"><symbol id="6_b" viewBox="-250.5 -250.36 501 501"><path fill="none" stroke="#C8C8C8" stroke-width="10" stroke-linecap="round" stroke-linejoin="round" stroke-miterlimit="10" d="M141.83 99.36c5.5 0 10 4.5 10 10v22.81c0 5.5-4.5 10-10 10H-141.4c-5.5 0-10-4.5-10-10v-22.81c0-5.5 4.5-10 10-10h283.23z"/><path fill="#7F6029" d="M-135-92.59L0-170.53l135 77.94v200.43h-270z"/><path fill="#A57D35" d="M122.53 107.84V70.38h-245.06v38.52"/><path fill="#BC783C" d="M-122.53-129.9L0-200.64l122.53 70.74V70.38h-245.06z"/><path opacity=".25" fill="#231F20" d="M-122.53 39.7H-135v10.75h12.47zm257.53 0h-12.47v10.75H135z"/><path fill="#E5AD4A" d="M124.4-128.82L0-200.64l-124.41 71.82L0-204.74z"/><path fill="#BC783C" d="M-122.53-129.9l43.44-26.58-26.91 26.89V70.38h-16.53V-129.9zM106 70.38v-201.72l-29.52-26.73 46.04 28.16V70.38H106z"/><path fill="none" stroke="#231F20" stroke-width="10" stroke-linejoin="round" stroke-miterlimit="10" d="M74.36 56.55h6.32c3.48 0 6.32 4.5 6.32 10v22.81c0 5.5-4.5 10-10 10H-76.57c-5.5 0-10-4.5-10-10V66.55c0-5.5 2.79-10 6.19-10h6.19m90.69 85.62h-32.57" opacity=".25"/><path fill="none" stroke="#C8C8C8" stroke-width="10" stroke-linecap="round" stroke-linejoin="round" stroke-miterlimit="10" d="M0 142.17v-22.81m0 22.81l-28.6 40.68L0 199.36l28.59-16.51z"/><path fill="none" stroke="#C8C8C8" stroke-width="10" stroke-linejoin="round" stroke-miterlimit="10" d="M74.36 76.55h6.32c3.48 0 6.32 4.5 6.32 10v22.81c0 5.5-4.5 10-10 10H-76.57c-5.5 0-10-4.5-10-10V86.55c0-5.5 2.79-10 6.19-10h6.19"/><path opacity=".25" fill="#BC783C" d="M-106 69.46v39.44h-16.53V69.4m245.06 0v39.5H106V69.12"/><path opacity=".5" fill="#BC783C" d="M-30.71-154.88L0-137.15l30.71-17.73v-28.03L0-200.64l-30.71 17.73z"/></symbol><symbol id="6_c" viewBox="-250.5 -250.5 501 501"><path opacity=".25" d="M67.5-107.55V37.03h-135v-144.58L0-146.53z"/><path d="M73.61-85.63v193.47H-73.62V-85.63L0-128.13z"/><path d="M-55.91-44.75v93.9h17.7v-93.9h-17.7zm46.7 0v93.9h17.7v-93.9h-17.7zm46.7 0v93.9h17.7v-93.9h-17.7z" fill="#FFF"/><path fill="none" d="M135 99.25L0 99.36l-135-.11v-222.09L0-200.78l135 77.94z"/><path fill="#FFF" d="M-73.62-65.63L0-108.13l73.61 42.5v-10L0-118.13l-73.62 42.5z"/></symbol><symbol id="6_a" viewBox="-251.5 -251.36 503 503"><path fill="none" stroke="#231F20" stroke-width="3" stroke-miterlimit="10" d="M250-249.86h-500v500h500zm-500 500l500-500m0 500l-500-500"/><path fill="none" stroke="red" stroke-width="10" stroke-miterlimit="10" d="M-173.21 99.36L0 199.36l173.21-100v-200L0-200.64l-173.21 100z"/></symbol><g transform="matrix(1 0 0 -1 256.5 252.334)"><use xlink:href="#6_b" width="501" height="501" x="-250.5" y="-250.36" overflow="visible"/><use xlink:href="#6_c" width="501" height="501" x="-250.5" y="-250.5" overflow="visible"/></g></symbol><symbol viewBox="0 0 500 500" id="7"><symbol id="7_b" viewBox="-250.5 -250.36 501 501"><path fill="none" stroke="#C8C8C8" stroke-width="10" stroke-linecap="round" stroke-linejoin="round" stroke-miterlimit="10" d="M141.83 99.36c5.5 0 10 4.5 10 10v22.81c0 5.5-4.5 10-10 10H-141.4c-5.5 0-10-4.5-10-10v-22.81c0-5.5 4.5-10 10-10h283.23z"/><path fill="#7F6029" d="M-135-92.59L0-170.53l135 77.94v200.43h-270z"/><path fill="#A57D35" d="M122.53 107.84V70.38h-245.06v38.52"/><path fill="#BC783C" d="M-122.53-129.9L0-200.64l122.53 70.74V70.38h-245.06z"/><path opacity=".25" fill="#231F20" d="M-122.53 39.7H-135v10.75h12.47zm257.53 0h-12.47v10.75H135z"/><path fill="#E5AD4A" d="M124.4-128.82L0-200.64l-124.41 71.82L0-204.74z"/><path fill="#BC783C" d="M-122.53-129.9l43.44-26.58-26.91 26.89V70.38h-16.53V-129.9zM106 70.38v-201.72l-29.52-26.73 46.04 28.16V70.38H106z"/><path fill="none" stroke="#231F20" stroke-width="10" stroke-linejoin="round" stroke-miterlimit="10" d="M74.36 56.55h6.32c3.48 0 6.32 4.5 6.32 10v22.81c0 5.5-4.5 10-10 10H-76.57c-5.5 0-10-4.5-10-10V66.55c0-5.5 2.79-10 6.19-10h6.19m90.69 85.62h-32.57" opacity=".25"/><path fill="none" stroke="#C8C8C8" stroke-width="10" stroke-linecap="round" stroke-linejoin="round" stroke-miterlimit="10" d="M0 142.17v-22.81m0 22.81l-28.6 40.68L0 199.36l28.59-16.51z"/><path fill="none" stroke="#C8C8C8" stroke-width="10" stroke-linejoin="round" stroke-miterlimit="10" d="M74.36 76.55h6.32c3.48 0 6.32 4.5 6.32 10v22.81c0 5.5-4.5 10-10 10H-76.57c-5.5 0-10-4.5-10-10V86.55c0-5.5 2.79-10 6.19-10h6.19"/><path opacity=".25" fill="#BC783C" d="M-106 69.46v39.44h-16.53V69.4m245.06 0v39.5H106V69.12"/><path opacity=".5" fill="#BC783C" d="M-30.71-154.88L0-137.15l30.71-17.73v-28.03L0-200.64l-30.71 17.73z"/></symbol><symbol id="7_c" viewBox="-250.5 -250.5 501 501"><path opacity=".25" d="M67.5-131.67V36.36h-135v-168.03L0-170.64z"/><path d="M73.62-109.75v217.59H-73.62v-217.59L0-152.25z"/><path d="M-32.2-46.28v93.9h17.7v-93.9h-17.7zm46.7 0v93.9h17.7v-93.9H14.5zm-88.12-43.47L0-132.25l73.62 42.5v-10L0-142.25l-73.62 42.5z" fill="#FFF"/><path fill="#FFF" d="M-73.62-69.75L0-112.25l73.62 42.5v-10L0-122.25l-73.62 42.5z"/></symbol><symbol id="7_a" viewBox="-251.5 -251.36 503 503"><path fill="none" stroke="#231F20" stroke-width="3" stroke-miterlimit="10" d="M250-249.86h-500v500h500zm-500 500l500-500m0 500l-500-500"/><path fill="none" stroke="red" stroke-width="10" stroke-miterlimit="10" d="M-173.21 99.36L0 199.36l173.21-100v-200L0-200.64l-173.21 100z"/></symbol><use xlink:href="#7_b" width="501" height="501" x="-250.5" y="-250.36" transform="matrix(1 0 0 -1 256.5 252.333)" overflow="visible"/><use xlink:href="#7_c" width="501" height="501" x="-250.5" y="-250.5" transform="matrix(1 0 0 -1 256.5 251.333)" overflow="visible"/></symbol><symbol viewBox="0 0 500 500" id="8"><symbol id="8_b" viewBox="-250.5 -250.36 501 501"><path fill="none" stroke="#C8C8C8" stroke-width="10" stroke-linecap="round" stroke-linejoin="round" stroke-miterlimit="10" d="M141.83 99.36c5.5 0 10 4.5 10 10v22.81c0 5.5-4.5 10-10 10H-141.4c-5.5 0-10-4.5-10-10v-22.81c0-5.5 4.5-10 10-10h283.23z"/><path fill="#7F6029" d="M-135-92.59L0-170.53l135 77.94v200.43h-270z"/><path fill="#A57D35" d="M122.53 107.84V70.38h-245.06v38.52"/><path fill="#BC783C" d="M-122.53-129.9L0-200.64l122.53 70.74V70.38h-245.06z"/><path opacity=".25" fill="#231F20" d="M-122.53 39.7H-135v10.75h12.47zm257.53 0h-12.47v10.75H135z"/><path fill="#E5AD4A" d="M124.4-128.82L0-200.64l-124.41 71.82L0-204.74z"/><path fill="#BC783C" d="M-122.53-129.9l43.44-26.58-26.91 26.89V70.38h-16.53V-129.9zM106 70.38v-201.72l-29.52-26.73 46.04 28.16V70.38H106z"/><path fill="none" stroke="#231F20" stroke-width="10" stroke-linejoin="round" stroke-miterlimit="10" d="M74.36 56.55h6.32c3.48 0 6.32 4.5 6.32 10v22.81c0 5.5-4.5 10-10 10H-76.57c-5.5 0-10-4.5-10-10V66.55c0-5.5 2.79-10 6.19-10h6.19m90.69 85.62h-32.57" opacity=".25"/><path fill="none" stroke="#C8C8C8" stroke-width="10" stroke-linecap="round" stroke-linejoin="round" stroke-miterlimit="10" d="M0 142.17v-22.81m0 22.81l-28.6 40.68L0 199.36l28.59-16.51z"/><path fill="none" stroke="#C8C8C8" stroke-width="10" stroke-linejoin="round" stroke-miterlimit="10" d="M74.36 76.55h6.32c3.48 0 6.32 4.5 6.32 10v22.81c0 5.5-4.5 10-10 10H-76.57c-5.5 0-10-4.5-10-10V86.55c0-5.5 2.79-10 6.19-10h6.19"/><path opacity=".25" fill="#BC783C" d="M-106 69.46v39.44h-16.53V69.4m245.06 0v39.5H106V69.12"/><path opacity=".5" fill="#BC783C" d="M-30.71-154.88L0-137.15l30.71-17.73v-28.03L0-200.64l-30.71 17.73z"/></symbol><symbol id="8_c" viewBox="-250.5 -250.5 501 501"><path opacity=".25" d="M67.5-161.81V36.36h-135v-198.17L0-200.78z"/><path d="M73.62-139.89V107.9H-73.62v-247.79L0-182.39z"/><path fill="#FFF" d="M-.92 64.7l13.73-42.25h44.42L21.29-3.66l13.73-42.25L-.92-19.8l-35.94-26.11 13.73 42.25-35.94 26.11h44.42zm-72.7-166.98L0-144.78l73.62 42.5v-10L0-154.78l-73.62 42.5z"/><path fill="#FFF" d="M-73.62-82.28L0-124.78l73.62 42.5v-10L0-134.78l-73.62 42.5z"/><path fill="#FFF" d="M-73.62-62.28L0-104.78l73.62 42.5v-10L0-114.78l-73.62 42.5z"/><path fill="#FFF" d="M38.98-92.28L0-69.78l-38.98-22.5v10L0-59.78l38.98-22.5z"/></symbol><symbol id="8_a" viewBox="-251.5 -251.36 503 503"><path fill="none" stroke="#231F20" stroke-width="3" stroke-miterlimit="10" d="M250-249.86h-500v500h500zm-500 500l500-500m0 500l-500-500"/><path fill="none" stroke="red" stroke-width="10" stroke-miterlimit="10" d="M-173.21 99.36L0 199.36l173.21-100v-200L0-200.64l-173.21 100z"/></symbol><use xlink:href="#8_b" width="501" height="501" x="-250.5" y="-250.36" transform="matrix(1 0 0 -1 256.5 252.334)" overflow="visible"/><use xlink:href="#8_c" width="501" height="501" x="-250.5" y="-250.5" transform="matrix(1 0 0 -1 256.5 251.334)" overflow="visible"/></symbol><symbol viewBox="0 0 500 500" id="9"><symbol id="9_b" viewBox="-250.5 -250.36 501 501"><path fill="none" stroke="#C8C8C8" stroke-width="10" stroke-linecap="round" stroke-linejoin="round" stroke-miterlimit="10" d="M141.83 99.29c5.5 0 10 4.5 10 10v22.81c0 5.5-4.5 10-10 10H-141.4c-5.5 0-10-4.5-10-10v-22.81c0-5.5 4.5-10 10-10h283.23z"/><path fill="#666" d="M-135-92.7L0-170.64 135-92.7v200.54h-270z"/><path fill="#8C8C8C" d="M122.53 107.84V70.38h-245.06v38.52"/><path fill="#A5A5A5" d="M-122.53-129.9L0-200.64l122.53 70.74V70.38h-245.06z"/><path opacity=".25" fill="#231F20" d="M-122.53 39.7H-135v10.75h12.47zm257.53 0h-12.47v10.75H135z"/><path fill="#CCC" d="M124.4-128.82L0-200.64l-124.41 71.82L0-204.74z"/><path fill="#A5A5A5" d="M-122.53-129.9l43.44-26.58-26.91 26.89V70.38h-16.53V-129.9zM106 70.38v-201.72l-29.52-26.73 46.04 28.16V70.38H106zm-136.71 0L0 88.11l30.71-17.73v-253.29L0-200.64l-30.71 17.73z"/><path opacity=".25" fill="#A5A5A5" d="M-106 68.4v39.44h-16.53v-39.5m245.06 0v39.5H106V68.05"/><path fill="none" stroke="#231F20" stroke-width="10" stroke-linejoin="round" stroke-miterlimit="10" d="M74.36 56.48h6.32c3.48 0 6.32 4.5 6.32 10v22.81c0 5.5-4.5 10-10 10H-76.57c-5.5 0-10-4.5-10-10V66.48c0-5.5 2.79-10 6.19-10h6.19M46.83 142.1H14.26m-28.09 0H-46.4" opacity=".25"/><path fill="none" stroke="#C8C8C8" stroke-width="10" stroke-linecap="round" stroke-linejoin="round" stroke-miterlimit="10" d="M-30.71 142.1v-22.81m61.42 22.81v-22.81m-61.42 22.81l-19.72 28.05 19.72 11.39 19.72-11.39zm61.42 0l-19.72 28.05 19.72 11.39 19.72-11.39z"/><path fill="none" stroke="#C8C8C8" stroke-width="10" stroke-linejoin="round" stroke-miterlimit="10" d="M74.36 76.48h6.32c3.48 0 6.32 4.5 6.32 10v22.81c0 5.5-4.5 10-10 10H-76.57c-5.5 0-10-4.5-10-10V86.48c0-5.5 2.79-10 6.19-10h6.19"/></symbol><symbol id="9_c" viewBox="-250.5 -250.5 501 501"><path opacity=".25" d="M67.5-87.55V37.03h-135V-87.55L0-126.53z"/><path d="M73.61-65.63v173.47H-73.62V-65.63L0-108.13z"/><path d="M-45.02-47.67v93.9h17.7v-93.9h-17.7zm60.05-.3l-17.7 94.2h17.7l6.9-39.3 3.15-21.9 3 21.75 7.05 39.45h17.1l-17.55-94.2H15.03z" fill="#FFF"/><path fill="none" d="M135 99.25L0 99.36l-135-.11v-222.09L0-200.78l135 77.94z"/></symbol><symbol id="9_a" viewBox="-251.5 -251.36 503 503"><path fill="none" stroke="#231F20" stroke-width="3" stroke-miterlimit="10" d="M250-249.86h-500v500h500zm-500 500l500-500m0 500l-500-500"/><path fill="none" stroke="red" stroke-width="10" stroke-miterlimit="10" d="M-173.21 99.36L0 199.36l173.21-100v-200L0-200.64l-173.21 100z"/></symbol><g transform="matrix(1 0 0 -1 256.5 252.334)"><use xlink:href="#9_b" width="501" height="501" x="-250.5" y="-250.36" overflow="visible"/><use xlink:href="#9_c" width="501" height="501" x="-250.5" y="-250.5" overflow="visible"/></g></symbol><symbol viewBox="0 0 500 500" id="10"><symbol id="10_b" viewBox="-250.5 -250.36 501 501"><path fill="none" stroke="#C8C8C8" stroke-width="10" stroke-linecap="round" stroke-linejoin="round" stroke-miterlimit="10" d="M141.83 99.29c5.5 0 10 4.5 10 10v22.81c0 5.5-4.5 10-10 10H-141.4c-5.5 0-10-4.5-10-10v-22.81c0-5.5 4.5-10 10-10h283.23z"/><path fill="#666" d="M-135-92.7L0-170.64 135-92.7v200.54h-270z"/><path fill="#8C8C8C" d="M122.53 107.84V70.38h-245.06v38.52"/><path fill="#A5A5A5" d="M-122.53-129.9L0-200.64l122.53 70.74V70.38h-245.06z"/><path opacity=".25" fill="#231F20" d="M-122.53 39.7H-135v10.75h12.47zm257.53 0h-12.47v10.75H135z"/><path fill="#CCC" d="M124.4-128.82L0-200.64l-124.41 71.82L0-204.74z"/><path fill="#A5A5A5" d="M-122.53-129.9l43.44-26.58-26.91 26.89V70.38h-16.53V-129.9zM106 70.38v-201.72l-29.52-26.73 46.04 28.16V70.38H106zm-136.71 0L0 88.11l30.71-17.73v-253.29L0-200.64l-30.71 17.73z"/><path opacity=".25" fill="#A5A5A5" d="M-106 68.4v39.44h-16.53v-39.5m245.06 0v39.5H106V68.05"/><path fill="none" stroke="#231F20" stroke-width="10" stroke-linejoin="round" stroke-miterlimit="10" d="M74.36 56.48h6.32c3.48 0 6.32 4.5 6.32 10v22.81c0 5.5-4.5 10-10 10H-76.57c-5.5 0-10-4.5-10-10V66.48c0-5.5 2.79-10 6.19-10h6.19M46.83 142.1H14.26m-28.09 0H-46.4" opacity=".25"/><path fill="none" stroke="#C8C8C8" stroke-width="10" stroke-linecap="round" stroke-linejoin="round" stroke-miterlimit="10" d="M-30.71 142.1v-22.81m61.42 22.81v-22.81m-61.42 22.81l-19.72 28.05 19.72 11.39 19.72-11.39zm61.42 0l-19.72 28.05 19.72 11.39 19.72-11.39z"/><path fill="none" stroke="#C8C8C8" stroke-width="10" stroke-linejoin="round" stroke-miterlimit="10" d="M74.36 76.48h6.32c3.48 0 6.32 4.5 6.32 10v22.81c0 5.5-4.5 10-10 10H-76.57c-5.5 0-10-4.5-10-10V86.48c0-5.5 2.79-10 6.19-10h6.19"/></symbol><symbol id="10_c" viewBox="-250.5 -250.5 501 501"><path opacity=".25" d="M67.5-107.55V37.03h-135v-144.58L0-146.53z"/><path d="M73.61-85.63v193.47H-73.62V-85.63L0-128.13z"/><path d="M-55.91-44.75v93.9h17.7v-93.9h-17.7zm46.7 0v93.9h17.7v-93.9h-17.7zm46.7 0v93.9h17.7v-93.9h-17.7z" fill="#FFF"/><path fill="none" d="M135 99.25L0 99.36l-135-.11v-222.09L0-200.78l135 77.94z"/><path fill="#FFF" d="M-73.62-65.63L0-108.13l73.61 42.5v-10L0-118.13l-73.62 42.5z"/></symbol><symbol id="10_a" viewBox="-251.5 -251.36 503 503"><path fill="none" stroke="#231F20" stroke-width="3" stroke-miterlimit="10" d="M250-249.86h-500v500h500zm-500 500l500-500m0 500l-500-500"/><path fill="none" stroke="red" stroke-width="10" stroke-miterlimit="10" d="M-173.21 99.36L0 199.36l173.21-100v-200L0-200.64l-173.21 100z"/></symbol><g transform="matrix(1 0 0 -1 256.5 252.334)"><use xlink:href="#10_b" width="501" height="501" x="-250.5" y="-250.36" overflow="visible"/><use xlink:href="#10_c" width="501" height="501" x="-250.5" y="-250.5" overflow="visible"/></g></symbol><symbol viewBox="0 0 500 500" id="11"><symbol id="11_b" viewBox="-250.5 -250.36 501 501"><path fill="none" stroke="#C8C8C8" stroke-width="10" stroke-linecap="round" stroke-linejoin="round" stroke-miterlimit="10" d="M141.83 99.29c5.5 0 10 4.5 10 10v22.81c0 5.5-4.5 10-10 10H-141.4c-5.5 0-10-4.5-10-10v-22.81c0-5.5 4.5-10 10-10h283.23z"/><path fill="#666" d="M-135-92.7L0-170.64 135-92.7v200.54h-270z"/><path fill="#8C8C8C" d="M122.53 107.84V70.38h-245.06v38.52"/><path fill="#A5A5A5" d="M-122.53-129.9L0-200.64l122.53 70.74V70.38h-245.06z"/><path opacity=".25" fill="#231F20" d="M-122.53 39.7H-135v10.75h12.47zm257.53 0h-12.47v10.75H135z"/><path fill="#CCC" d="M124.4-128.82L0-200.64l-124.41 71.82L0-204.74z"/><path fill="#A5A5A5" d="M-122.53-129.9l43.44-26.58-26.91 26.89V70.38h-16.53V-129.9zM106 70.38v-201.72l-29.52-26.73 46.04 28.16V70.38H106zm-136.71 0L0 88.11l30.71-17.73v-253.29L0-200.64l-30.71 17.73z"/><path opacity=".25" fill="#A5A5A5" d="M-106 68.4v39.44h-16.53v-39.5m245.06 0v39.5H106V68.05"/><path fill="none" stroke="#231F20" stroke-width="10" stroke-linejoin="round" stroke-miterlimit="10" d="M74.36 56.48h6.32c3.48 0 6.32 4.5 6.32 10v22.81c0 5.5-4.5 10-10 10H-76.57c-5.5 0-10-4.5-10-10V66.48c0-5.5 2.79-10 6.19-10h6.19M46.83 142.1H14.26m-28.09 0H-46.4" opacity=".25"/><path fill="none" stroke="#C8C8C8" stroke-width="10" stroke-linecap="round" stroke-linejoin="round" stroke-miterlimit="10" d="M-30.71 142.1v-22.81m61.42 22.81v-22.81m-61.42 22.81l-19.72 28.05 19.72 11.39 19.72-11.39zm61.42 0l-19.72 28.05 19.72 11.39 19.72-11.39z"/><path fill="none" stroke="#C8C8C8" stroke-width="10" stroke-linejoin="round" stroke-miterlimit="10" d="M74.36 76.48h6.32c3.48 0 6.32 4.5 6.32 10v22.81c0 5.5-4.5 10-10 10H-76.57c-5.5 0-10-4.5-10-10V86.48c0-5.5 2.79-10 6.19-10h6.19"/></symbol><symbol id="11_c" viewBox="-250.5 -250.5 501 501"><path opacity=".25" d="M67.5-131.67V36.36h-135v-168.03L0-170.64z"/><path d="M73.62-109.75v217.59H-73.62v-217.59L0-152.25z"/><path d="M-32.2-46.28v93.9h17.7v-93.9h-17.7zm46.7 0v93.9h17.7v-93.9H14.5zm-88.12-43.47L0-132.25l73.62 42.5v-10L0-142.25l-73.62 42.5z" fill="#FFF"/><path fill="#FFF" d="M-73.62-69.75L0-112.25l73.62 42.5v-10L0-122.25l-73.62 42.5z"/></symbol><symbol id="11_a" viewBox="-251.5 -251.36 503 503"><path fill="none" stroke="#231F20" stroke-width="3" stroke-miterlimit="10" d="M250-249.86h-500v500h500zm-500 500l500-500m0 500l-500-500"/><path fill="none" stroke="red" stroke-width="10" stroke-miterlimit="10" d="M-173.21 99.36L0 199.36l173.21-100v-200L0-200.64l-173.21 100z"/></symbol><use xlink:href="#11_b" width="501" height="501" x="-250.5" y="-250.36" transform="matrix(1 0 0 -1 256.5 252.333)" overflow="visible"/><use xlink:href="#11_c" width="501" height="501" x="-250.5" y="-250.5" transform="matrix(1 0 0 -1 256.5 251.333)" overflow="visible"/></symbol><symbol viewBox="0 0 500 500" id="12"><symbol id="12_b" viewBox="-250.5 -250.36 501 501"><path fill="none" stroke="#C8C8C8" stroke-width="10" stroke-linecap="round" stroke-linejoin="round" stroke-miterlimit="10" d="M141.83 99.29c5.5 0 10 4.5 10 10v22.81c0 5.5-4.5 10-10 10H-141.4c-5.5 0-10-4.5-10-10v-22.81c0-5.5 4.5-10 10-10h283.23z"/><path fill="#666" d="M-135-92.7L0-170.64 135-92.7v200.54h-270z"/><path fill="#8C8C8C" d="M122.53 107.84V70.38h-245.06v38.52"/><path fill="#A5A5A5" d="M-122.53-129.9L0-200.64l122.53 70.74V70.38h-245.06z"/><path opacity=".25" fill="#231F20" d="M-122.53 39.7H-135v10.75h12.47zm257.53 0h-12.47v10.75H135z"/><path fill="#CCC" d="M124.4-128.82L0-200.64l-124.41 71.82L0-204.74z"/><path fill="#A5A5A5" d="M-122.53-129.9l43.44-26.58-26.91 26.89V70.38h-16.53V-129.9zM106 70.38v-201.72l-29.52-26.73 46.04 28.16V70.38H106zm-136.71 0L0 88.11l30.71-17.73v-253.29L0-200.64l-30.71 17.73z"/><path opacity=".25" fill="#A5A5A5" d="M-106 68.4v39.44h-16.53v-39.5m245.06 0v39.5H106V68.05"/><path fill="none" stroke="#231F20" stroke-width="10" stroke-linejoin="round" stroke-miterlimit="10" d="M74.36 56.48h6.32c3.48 0 6.32 4.5 6.32 10v22.81c0 5.5-4.5 10-10 10H-76.57c-5.5 0-10-4.5-10-10V66.48c0-5.5 2.79-10 6.19-10h6.19M46.83 142.1H14.26m-28.09 0H-46.4" opacity=".25"/><path fill="none" stroke="#C8C8C8" stroke-width="10" stroke-linecap="round" stroke-linejoin="round" stroke-miterlimit="10" d="M-30.71 142.1v-22.81m61.42 22.81v-22.81m-61.42 22.81l-19.72 28.05 19.72 11.39 19.72-11.39zm61.42 0l-19.72 28.05 19.72 11.39 19.72-11.39z"/><path fill="none" stroke="#C8C8C8" stroke-width="10" stroke-linejoin="round" stroke-miterlimit="10" d="M74.36 76.48h6.32c3.48 0 6.32 4.5 6.32 10v22.81c0 5.5-4.5 10-10 10H-76.57c-5.5 0-10-4.5-10-10V86.48c0-5.5 2.79-10 6.19-10h6.19"/></symbol><symbol id="12_c" viewBox="-250.5 -250.5 501 501"><path opacity=".25" d="M67.5-161.81V36.36h-135v-198.17L0-200.78z"/><path d="M73.62-139.89V107.9H-73.62v-247.79L0-182.39z"/><path fill="#FFF" d="M-.92 64.7l13.73-42.25h44.42L21.29-3.66l13.73-42.25L-.92-19.8l-35.94-26.11 13.73 42.25-35.94 26.11h44.42zm-72.7-166.98L0-144.78l73.62 42.5v-10L0-154.78l-73.62 42.5z"/><path fill="#FFF" d="M-73.62-82.28L0-124.78l73.62 42.5v-10L0-134.78l-73.62 42.5z"/><path fill="#FFF" d="M-73.62-62.28L0-104.78l73.62 42.5v-10L0-114.78l-73.62 42.5z"/><path fill="#FFF" d="M38.98-92.28L0-69.78l-38.98-22.5v10L0-59.78l38.98-22.5z"/></symbol><symbol id="12_a" viewBox="-251.5 -251.36 503 503"><path fill="none" stroke="#231F20" stroke-width="3" stroke-miterlimit="10" d="M250-249.86h-500v500h500zm-500 500l500-500m0 500l-500-500"/><path fill="none" stroke="red" stroke-width="10" stroke-miterlimit="10" d="M-173.21 99.36L0 199.36l173.21-100v-200L0-200.64l-173.21 100z"/></symbol><use xlink:href="#12_b" width="501" height="501" x="-250.5" y="-250.36" transform="matrix(1 0 0 -1 256.5 252.334)" overflow="visible"/><use xlink:href="#12_c" width="501" height="501" x="-250.5" y="-250.5" transform="matrix(1 0 0 -1 256.5 251.334)" overflow="visible"/></symbol><symbol viewBox="0 0 500 500" id="13"><symbol id="13_b" viewBox="-250.5 -250.36 501 501"><path fill="none" stroke="#C8C8C8" stroke-width="10" stroke-linecap="round" stroke-linejoin="round" stroke-miterlimit="10" d="M141.83 99.57c5.5 0 10 4.5 10 10v22.81c0 5.5-4.5 10-10 10H-141.4c-5.5 0-10-4.5-10-10v-22.81c0-5.5 4.5-10 10-10h283.23z"/><path fill="#CC932F" d="M-135-200.64l135 30 135-30v308.48h-270z"/><path fill="#CC932F" d="M122.53 107.84V70.38h-245.06v38.52"/><path fill="#EDAF35" d="M135.04-200.64v15.19L0-155.45l-135.04-30v-15.19L0-170.64z"/><path fill="#EDAF35" d="M-122.53-129.9L0-200.64l122.53 70.74V70.38h-245.06z"/><path opacity=".25" fill="#231F20" d="M-122.53 39.7H-135v10.75h12.47zm257.53 0h-12.47v10.75H135zm-257.53-189.54l60.07-34.68 24.94 5.54-85.01 49.08v-19.94zm160.05-29.14l24.94-5.54 60.07 34.68v19.94l-85.01-49.08z"/><path fill="#FFC364" d="M124.41-128.82L0-200.64l-124.41 71.82L0-204.74z"/><path fill="#EDAF35" d="M-122.53-129.9l43.44-26.58-26.91 26.89V70.38h-16.53V-129.9zM106 70.38v-201.72l-29.52-26.73 46.04 28.16V70.38H106zM-10.47 89.64L0 95.69l10.47-6.05V-194.6L0-200.64l-10.47 6.04zm50.94 0l10.47 6.05 10.47-6.05v-254.83l-10.47-6.04-10.47-6.05zm-101.88 0l10.47 6.05 10.47-6.05v-266.92l-10.47 6.05-10.47 6.04z"/><path fill="#CC932F" d="M124.41-129.9v34L0-24.08-124.41-95.9v-34L0-58.08z"/><path opacity=".25" fill="#231F20" d="M-124.41-129.9L0-58.08l124.41-71.82L0-66.34z"/><path fill="#FFF" d="M-124.41-129.9L0-58.08l124.41-71.82L0-53.98z"/><path fill="#EDAF35" d="M-106-119.28v34l-8.5-4.91v-34.31m229.5.34v33.69l-9 5.2v-34"/><path fill="none" stroke="#231F20" stroke-width="10" stroke-linejoin="round" stroke-miterlimit="10" d="M74.36 56.76h6.32c3.48 0 6.32 4.5 6.32 10v22.81c0 5.5-4.5 10-10 10H-76.57c-5.5 0-10-4.5-10-10V66.76c0-5.5 2.79-10 6.19-10h6.19m149.75 85.62H42.99" opacity=".25"/><path fill="none" stroke="#C8C8C8" stroke-width="10" stroke-linecap="round" stroke-linejoin="round" stroke-miterlimit="10" d="M59.44 142.38v-22.81m0 22.81l-19.72 28.06 5.19 2.99 25.86-14.93z"/><path fill="none" stroke="#231F20" stroke-width="10" stroke-linejoin="round" stroke-miterlimit="10" d="M16.12 142.38h-32.57" opacity=".25"/><path fill="none" stroke="#FFF" stroke-width="10" stroke-linecap="round" stroke-linejoin="round" stroke-miterlimit="10" d="M0 142.38v-22.81m0 22.81l-28.28 40.24L0 198.96l28.29-16.34z"/><g fill="none" stroke-width="10" stroke-linejoin="round" stroke-miterlimit="10"><path stroke="#231F20" d="M-43.32 142.38h-32.57" opacity=".25"/><path stroke="#C8C8C8" stroke-linecap="round" d="M-59.44 142.38v-22.81m0 22.81l-11.33 16.12 25.86 14.93 5.19-2.99z"/></g><path fill="none" stroke="#C8C8C8" stroke-width="10" stroke-linejoin="round" stroke-miterlimit="10" d="M74.36 76.76h6.32c3.48 0 6.32 4.5 6.32 10v22.81c0 5.5-4.5 10-10 10H-76.57c-5.5 0-10-4.5-10-10V86.76c0-5.5 2.79-10 6.19-10h6.19"/><path opacity=".25" fill="#EDAF35" d="M-106 68.4v39.44h-16.53v-39.5m245.06 0v39.5H106V68.05"/></symbol><symbol id="13_c" viewBox="-250.5 -250.5 501 501"><path opacity=".25" d="M67.5-87.55V37.03h-135V-87.55L0-126.53z"/><path d="M73.61-65.63v173.47H-73.62V-65.63L0-108.13z"/><path d="M-45.02-47.67v93.9h17.7v-93.9h-17.7zm60.05-.3l-17.7 94.2h17.7l6.9-39.3 3.15-21.9 3 21.75 7.05 39.45h17.1l-17.55-94.2H15.03z" fill="#FFF"/><path fill="none" d="M135 99.25L0 99.36l-135-.11v-222.09L0-200.78l135 77.94z"/></symbol><symbol id="13_a" viewBox="-251.5 -251.36 503 503"><path fill="none" stroke="#231F20" stroke-width="3" stroke-miterlimit="10" d="M250-249.86h-500v500h500zm-500 500l500-500m0 500l-500-500"/><path fill="none" stroke="red" stroke-width="10" stroke-miterlimit="10" d="M-173.21 99.36L0 199.36l173.21-100v-200L0-200.64l-173.21 100z"/></symbol><g transform="matrix(1 0 0 -1 256.5 252.334)"><use xlink:href="#13_b" width="501" height="501" x="-250.5" y="-250.36" overflow="visible"/><use xlink:href="#13_c" width="501" height="501" x="-250.5" y="-250.5" overflow="visible"/></g></symbol><symbol viewBox="0 0 500 500" id="14"><symbol id="14_b" viewBox="-250.5 -250.36 501 501"><path fill="none" stroke="#C8C8C8" stroke-width="10" stroke-linecap="round" stroke-linejoin="round" stroke-miterlimit="10" d="M141.83 99.57c5.5 0 10 4.5 10 10v22.81c0 5.5-4.5 10-10 10H-141.4c-5.5 0-10-4.5-10-10v-22.81c0-5.5 4.5-10 10-10h283.23z"/><path fill="#CC932F" d="M-135-200.64l135 30 135-30v308.48h-270z"/><path fill="#CC932F" d="M122.53 107.84V70.38h-245.06v38.52"/><path fill="#EDAF35" d="M135.04-200.64v15.19L0-155.45l-135.04-30v-15.19L0-170.64z"/><path fill="#EDAF35" d="M-122.53-129.9L0-200.64l122.53 70.74V70.38h-245.06z"/><path opacity=".25" fill="#231F20" d="M-122.53 39.7H-135v10.75h12.47zm257.53 0h-12.47v10.75H135zm-257.53-189.54l60.07-34.68 24.94 5.54-85.01 49.08v-19.94zm160.05-29.14l24.94-5.54 60.07 34.68v19.94l-85.01-49.08z"/><path fill="#FFC364" d="M124.41-128.82L0-200.64l-124.41 71.82L0-204.74z"/><path fill="#EDAF35" d="M-122.53-129.9l43.44-26.58-26.91 26.89V70.38h-16.53V-129.9zM106 70.38v-201.72l-29.52-26.73 46.04 28.16V70.38H106zM-10.47 89.64L0 95.69l10.47-6.05V-194.6L0-200.64l-10.47 6.04zm50.94 0l10.47 6.05 10.47-6.05v-254.83l-10.47-6.04-10.47-6.05zm-101.88 0l10.47 6.05 10.47-6.05v-266.92l-10.47 6.05-10.47 6.04z"/><path fill="#CC932F" d="M124.41-129.9v34L0-24.08-124.41-95.9v-34L0-58.08z"/><path opacity=".25" fill="#231F20" d="M-124.41-129.9L0-58.08l124.41-71.82L0-66.34z"/><path fill="#FFF" d="M-124.41-129.9L0-58.08l124.41-71.82L0-53.98z"/><path fill="#EDAF35" d="M-106-119.28v34l-8.5-4.91v-34.31m229.5.34v33.69l-9 5.2v-34"/><path fill="none" stroke="#231F20" stroke-width="10" stroke-linejoin="round" stroke-miterlimit="10" d="M74.36 56.76h6.32c3.48 0 6.32 4.5 6.32 10v22.81c0 5.5-4.5 10-10 10H-76.57c-5.5 0-10-4.5-10-10V66.76c0-5.5 2.79-10 6.19-10h6.19m149.75 85.62H42.99" opacity=".25"/><path fill="none" stroke="#C8C8C8" stroke-width="10" stroke-linecap="round" stroke-linejoin="round" stroke-miterlimit="10" d="M59.44 142.38v-22.81m0 22.81l-19.72 28.06 5.19 2.99 25.86-14.93z"/><path fill="none" stroke="#231F20" stroke-width="10" stroke-linejoin="round" stroke-miterlimit="10" d="M16.12 142.38h-32.57" opacity=".25"/><path fill="none" stroke="#FFF" stroke-width="10" stroke-linecap="round" stroke-linejoin="round" stroke-miterlimit="10" d="M0 142.38v-22.81m0 22.81l-28.28 40.24L0 198.96l28.29-16.34z"/><g fill="none" stroke-width="10" stroke-linejoin="round" stroke-miterlimit="10"><path stroke="#231F20" d="M-43.32 142.38h-32.57" opacity=".25"/><path stroke="#C8C8C8" stroke-linecap="round" d="M-59.44 142.38v-22.81m0 22.81l-11.33 16.12 25.86 14.93 5.19-2.99z"/></g><path fill="none" stroke="#C8C8C8" stroke-width="10" stroke-linejoin="round" stroke-miterlimit="10" d="M74.36 76.76h6.32c3.48 0 6.32 4.5 6.32 10v22.81c0 5.5-4.5 10-10 10H-76.57c-5.5 0-10-4.5-10-10V86.76c0-5.5 2.79-10 6.19-10h6.19"/><path opacity=".25" fill="#EDAF35" d="M-106 68.4v39.44h-16.53v-39.5m245.06 0v39.5H106V68.05"/></symbol><symbol id="14_c" viewBox="-250.5 -250.5 501 501"><path opacity=".25" d="M67.5-107.55V37.03h-135v-144.58L0-146.53z"/><path d="M73.61-85.63v193.47H-73.62V-85.63L0-128.13z"/><path d="M-55.91-44.75v93.9h17.7v-93.9h-17.7zm46.7 0v93.9h17.7v-93.9h-17.7zm46.7 0v93.9h17.7v-93.9h-17.7z" fill="#FFF"/><path fill="none" d="M135 99.25L0 99.36l-135-.11v-222.09L0-200.78l135 77.94z"/><path fill="#FFF" d="M-73.62-65.63L0-108.13l73.61 42.5v-10L0-118.13l-73.62 42.5z"/></symbol><symbol id="14_a" viewBox="-251.5 -251.36 503 503"><path fill="none" stroke="#231F20" stroke-width="3" stroke-miterlimit="10" d="M250-249.86h-500v500h500zm-500 500l500-500m0 500l-500-500"/><path fill="none" stroke="red" stroke-width="10" stroke-miterlimit="10" d="M-173.21 99.36L0 199.36l173.21-100v-200L0-200.64l-173.21 100z"/></symbol><g transform="matrix(1 0 0 -1 256.5 252.335)"><use xlink:href="#14_b" width="501" height="501" x="-250.5" y="-250.36" overflow="visible"/><use xlink:href="#14_c" width="501" height="501" x="-250.5" y="-250.5" overflow="visible"/></g></symbol><symbol viewBox="0 0 500 500" id="15"><symbol id="15_b" viewBox="-250.5 -250.36 501 501"><path fill="none" stroke="#C8C8C8" stroke-width="10" stroke-linecap="round" stroke-linejoin="round" stroke-miterlimit="10" d="M141.83 99.57c5.5 0 10 4.5 10 10v22.81c0 5.5-4.5 10-10 10H-141.4c-5.5 0-10-4.5-10-10v-22.81c0-5.5 4.5-10 10-10h283.23z"/><path fill="#CC932F" d="M-135-200.64l135 30 135-30v308.48h-270z"/><path fill="#CC932F" d="M122.53 107.84V70.38h-245.06v38.52"/><path fill="#EDAF35" d="M135.04-200.64v15.19L0-155.45l-135.04-30v-15.19L0-170.64z"/><path fill="#EDAF35" d="M-122.53-129.9L0-200.64l122.53 70.74V70.38h-245.06z"/><path opacity=".25" fill="#231F20" d="M-122.53 39.7H-135v10.75h12.47zm257.53 0h-12.47v10.75H135zm-257.53-189.54l60.07-34.68 24.94 5.54-85.01 49.08v-19.94zm160.05-29.14l24.94-5.54 60.07 34.68v19.94l-85.01-49.08z"/><path fill="#FFC364" d="M124.41-128.82L0-200.64l-124.41 71.82L0-204.74z"/><path fill="#EDAF35" d="M-122.53-129.9l43.44-26.58-26.91 26.89V70.38h-16.53V-129.9zM106 70.38v-201.72l-29.52-26.73 46.04 28.16V70.38H106zM-10.47 89.64L0 95.69l10.47-6.05V-194.6L0-200.64l-10.47 6.04zm50.94 0l10.47 6.05 10.47-6.05v-254.83l-10.47-6.04-10.47-6.05zm-101.88 0l10.47 6.05 10.47-6.05v-266.92l-10.47 6.05-10.47 6.04z"/><path fill="#CC932F" d="M124.41-129.9v34L0-24.08-124.41-95.9v-34L0-58.08z"/><path opacity=".25" fill="#231F20" d="M-124.41-129.9L0-58.08l124.41-71.82L0-66.34z"/><path fill="#FFF" d="M-124.41-129.9L0-58.08l124.41-71.82L0-53.98z"/><path fill="#EDAF35" d="M-106-119.28v34l-8.5-4.91v-34.31m229.5.34v33.69l-9 5.2v-34"/><path fill="none" stroke="#231F20" stroke-width="10" stroke-linejoin="round" stroke-miterlimit="10" d="M74.36 56.76h6.32c3.48 0 6.32 4.5 6.32 10v22.81c0 5.5-4.5 10-10 10H-76.57c-5.5 0-10-4.5-10-10V66.76c0-5.5 2.79-10 6.19-10h6.19m149.75 85.62H42.99" opacity=".25"/><path fill="none" stroke="#C8C8C8" stroke-width="10" stroke-linecap="round" stroke-linejoin="round" stroke-miterlimit="10" d="M59.44 142.38v-22.81m0 22.81l-19.72 28.06 5.19 2.99 25.86-14.93z"/><path fill="none" stroke="#231F20" stroke-width="10" stroke-linejoin="round" stroke-miterlimit="10" d="M16.12 142.38h-32.57" opacity=".25"/><path fill="none" stroke="#FFF" stroke-width="10" stroke-linecap="round" stroke-linejoin="round" stroke-miterlimit="10" d="M0 142.38v-22.81m0 22.81l-28.28 40.24L0 198.96l28.29-16.34z"/><g fill="none" stroke-width="10" stroke-linejoin="round" stroke-miterlimit="10"><path stroke="#231F20" d="M-43.32 142.38h-32.57" opacity=".25"/><path stroke="#C8C8C8" stroke-linecap="round" d="M-59.44 142.38v-22.81m0 22.81l-11.33 16.12 25.86 14.93 5.19-2.99z"/></g><path fill="none" stroke="#C8C8C8" stroke-width="10" stroke-linejoin="round" stroke-miterlimit="10" d="M74.36 76.76h6.32c3.48 0 6.32 4.5 6.32 10v22.81c0 5.5-4.5 10-10 10H-76.57c-5.5 0-10-4.5-10-10V86.76c0-5.5 2.79-10 6.19-10h6.19"/><path opacity=".25" fill="#EDAF35" d="M-106 68.4v39.44h-16.53v-39.5m245.06 0v39.5H106V68.05"/></symbol><symbol id="15_c" viewBox="-250.5 -250.5 501 501"><path opacity=".25" d="M67.5-131.67V36.36h-135v-168.03L0-170.64z"/><path d="M73.62-109.75v217.59H-73.62v-217.59L0-152.25z"/><path d="M-32.2-46.28v93.9h17.7v-93.9h-17.7zm46.7 0v93.9h17.7v-93.9H14.5zm-88.12-43.47L0-132.25l73.62 42.5v-10L0-142.25l-73.62 42.5z" fill="#FFF"/><path fill="#FFF" d="M-73.62-69.75L0-112.25l73.62 42.5v-10L0-122.25l-73.62 42.5z"/></symbol><symbol id="15_a" viewBox="-251.5 -251.36 503 503"><path fill="none" stroke="#231F20" stroke-width="3" stroke-miterlimit="10" d="M250-249.86h-500v500h500zm-500 500l500-500m0 500l-500-500"/><path fill="none" stroke="red" stroke-width="10" stroke-miterlimit="10" d="M-173.21 99.36L0 199.36l173.21-100v-200L0-200.64l-173.21 100z"/></symbol><use xlink:href="#15_b" width="501" height="501" x="-250.5" y="-250.36" transform="matrix(1 0 0 -1 256.5 252.334)" overflow="visible"/><use xlink:href="#15_c" width="501" height="501" x="-250.5" y="-250.5" transform="matrix(1 0 0 -1 256.5 251.334)" overflow="visible"/></symbol><symbol viewBox="0 0 500 500" id="16"><symbol id="16_b" viewBox="-250.5 -250.36 501 501"><path fill="none" stroke="#C8C8C8" stroke-width="10" stroke-linecap="round" stroke-linejoin="round" stroke-miterlimit="10" d="M141.83 99.57c5.5 0 10 4.5 10 10v22.81c0 5.5-4.5 10-10 10H-141.4c-5.5 0-10-4.5-10-10v-22.81c0-5.5 4.5-10 10-10h283.23z"/><path fill="#CC932F" d="M-135-200.64l135 30 135-30v308.48h-270z"/><path fill="#CC932F" d="M122.53 107.84V70.38h-245.06v38.52"/><path fill="#EDAF35" d="M135.04-200.64v15.19L0-155.45l-135.04-30v-15.19L0-170.64z"/><path fill="#EDAF35" d="M-122.53-129.9L0-200.64l122.53 70.74V70.38h-245.06z"/><path opacity=".25" fill="#231F20" d="M-122.53 39.7H-135v10.75h12.47zm257.53 0h-12.47v10.75H135zm-257.53-189.54l60.07-34.68 24.94 5.54-85.01 49.08v-19.94zm160.05-29.14l24.94-5.54 60.07 34.68v19.94l-85.01-49.08z"/><path fill="#FFC364" d="M124.41-128.82L0-200.64l-124.41 71.82L0-204.74z"/><path fill="#EDAF35" d="M-122.53-129.9l43.44-26.58-26.91 26.89V70.38h-16.53V-129.9zM106 70.38v-201.72l-29.52-26.73 46.04 28.16V70.38H106zM-10.47 89.64L0 95.69l10.47-6.05V-194.6L0-200.64l-10.47 6.04zm50.94 0l10.47 6.05 10.47-6.05v-254.83l-10.47-6.04-10.47-6.05zm-101.88 0l10.47 6.05 10.47-6.05v-266.92l-10.47 6.05-10.47 6.04z"/><path fill="#CC932F" d="M124.41-129.9v34L0-24.08-124.41-95.9v-34L0-58.08z"/><path opacity=".25" fill="#231F20" d="M-124.41-129.9L0-58.08l124.41-71.82L0-66.34z"/><path fill="#FFF" d="M-124.41-129.9L0-58.08l124.41-71.82L0-53.98z"/><path fill="#EDAF35" d="M-106-119.28v34l-8.5-4.91v-34.31m229.5.34v33.69l-9 5.2v-34"/><path fill="none" stroke="#231F20" stroke-width="10" stroke-linejoin="round" stroke-miterlimit="10" d="M74.36 56.76h6.32c3.48 0 6.32 4.5 6.32 10v22.81c0 5.5-4.5 10-10 10H-76.57c-5.5 0-10-4.5-10-10V66.76c0-5.5 2.79-10 6.19-10h6.19m149.75 85.62H42.99" opacity=".25"/><path fill="none" stroke="#C8C8C8" stroke-width="10" stroke-linecap="round" stroke-linejoin="round" stroke-miterlimit="10" d="M59.44 142.38v-22.81m0 22.81l-19.72 28.06 5.19 2.99 25.86-14.93z"/><path fill="none" stroke="#231F20" stroke-width="10" stroke-linejoin="round" stroke-miterlimit="10" d="M16.12 142.38h-32.57" opacity=".25"/><path fill="none" stroke="#FFF" stroke-width="10" stroke-linecap="round" stroke-linejoin="round" stroke-miterlimit="10" d="M0 142.38v-22.81m0 22.81l-28.28 40.24L0 198.96l28.29-16.34z"/><g fill="none" stroke-width="10" stroke-linejoin="round" stroke-miterlimit="10"><path stroke="#231F20" d="M-43.32 142.38h-32.57" opacity=".25"/><path stroke="#C8C8C8" stroke-linecap="round" d="M-59.44 142.38v-22.81m0 22.81l-11.33 16.12 25.86 14.93 5.19-2.99z"/></g><path fill="none" stroke="#C8C8C8" stroke-width="10" stroke-linejoin="round" stroke-miterlimit="10" d="M74.36 76.76h6.32c3.48 0 6.32 4.5 6.32 10v22.81c0 5.5-4.5 10-10 10H-76.57c-5.5 0-10-4.5-10-10V86.76c0-5.5 2.79-10 6.19-10h6.19"/><path opacity=".25" fill="#EDAF35" d="M-106 68.4v39.44h-16.53v-39.5m245.06 0v39.5H106V68.05"/></symbol><symbol id="16_c" viewBox="-250.5 -250.5 501 501"><path opacity=".25" d="M67.5-161.81V36.36h-135v-198.17L0-200.78z"/><path d="M73.62-139.89V107.9H-73.62v-247.79L0-182.39z"/><path fill="#FFF" d="M-.92 64.7l13.73-42.25h44.42L21.29-3.66l13.73-42.25L-.92-19.8l-35.94-26.11 13.73 42.25-35.94 26.11h44.42zm-72.7-166.98L0-144.78l73.62 42.5v-10L0-154.78l-73.62 42.5z"/><path fill="#FFF" d="M-73.62-82.28L0-124.78l73.62 42.5v-10L0-134.78l-73.62 42.5z"/><path fill="#FFF" d="M-73.62-62.28L0-104.78l73.62 42.5v-10L0-114.78l-73.62 42.5z"/><path fill="#FFF" d="M38.98-92.28L0-69.78l-38.98-22.5v10L0-59.78l38.98-22.5z"/></symbol><symbol id="16_a" viewBox="-251.5 -251.36 503 503"><path fill="none" stroke="#231F20" stroke-width="3" stroke-miterlimit="10" d="M250-249.86h-500v500h500zm-500 500l500-500m0 500l-500-500"/><path fill="none" stroke="red" stroke-width="10" stroke-miterlimit="10" d="M-173.21 99.36L0 199.36l173.21-100v-200L0-200.64l-173.21 100z"/></symbol><use xlink:href="#16_b" width="501" height="501" x="-250.5" y="-250.36" transform="matrix(1 0 0 -1 256.5 252.334)" overflow="visible"/><use xlink:href="#16_c" width="501" height="501" x="-250.5" y="-250.5" transform="matrix(1 0 0 -1 256.5 251.334)" overflow="visible"/></symbol><symbol viewBox="0 0 500 500" id="17"><symbol id="17_b" viewBox="-250.5 -250.36 501 501"><path fill="none" stroke="#C8C8C8" stroke-width="10" stroke-linecap="round" stroke-linejoin="round" stroke-miterlimit="10" d="M141.83 99.19c5.5 0 10 4.5 10 10V132c0 5.5-4.5 10-10 10H-141.4c-5.5 0-10-4.5-10-10v-22.81c0-5.5 4.5-10 10-10h283.23z"/><path d="M173.21 59.36v-160L0-200.64l-173.21 100v160m0 0h48.81m248.8 0h48.81" fill="none" stroke="#EDD6AE" stroke-width="10" stroke-linecap="round" stroke-linejoin="round" stroke-miterlimit="10"/><path fill="none" stroke="#C8C8C8" stroke-width="10" stroke-linecap="round" stroke-linejoin="round" stroke-miterlimit="10" d="M-92.67-174.13l46.34-30m91.14 0l44.81 30"/><path fill="#7F725E" d="M-135-202.72L0-169.23l135-33.49v310.56h-270z"/><path fill="#CCB697" d="M122.53 107.84V70.38h-245.06v38.52"/><path fill="#EDD6AE" d="M135-202.72v15.19l-135.04 30-135.03-30v-15.19l135.03 30z"/><path fill="#EDD6AE" d="M135-172.34v15.2l-135.04 30-135.03-30v-15.2l135.03 30z"/><path fill="#EDD6AE" d="M-122.53-129.9L0-200.64l122.53 70.74V70.38h-245.06z"/><path opacity=".25" fill="#231F20" d="M-122.53 39.7H-135v10.75h12.47zm257.53 0h-12.47v10.75H135z"/><path d="M-10.47 85.49L0 91.54l10.47-6.05V-194.6L0-200.64l-10.47 6.04zm50.94 0l10.47 6.05 10.47-6.05v-250.68l-10.47-6.04-10.47-6.05zm50-15.11l10.47 6.05 10.47-6.05v-207.13l-10.47-6.04-10.47-6.05zM-61.41 85.49l10.47 6.05 10.47-6.05v-262.77l-10.47 6.05-10.47 6.04zm-50-15.11l10.47 6.05 10.47-6.05v-219.22l-10.47 6.05-10.47 6.04z" fill="#EDD6AE"/><path opacity=".25" fill="#231F20" d="M-122.53-149.84l60.07-34.68 24.93 5.54-85.01 49.08v-19.94zm160.05-29.14l24.93-5.54 60.07 34.68v19.94l-85-49.08z"/><path fill="none" stroke="#C8C8C8" stroke-width="10" stroke-linecap="round" stroke-linejoin="round" stroke-miterlimit="10" d="M-46.33-204.13v43m91.14 1.5v-44.5"/><path opacity=".25" fill="#231F20" d="M-79.01-188.83l13.21 3.27 6.3-4.32-11-4.37zm156.29.43l-13.22 3.27-6.3-4.32 11-4.37z"/><path fill="none" stroke="#C8C8C8" stroke-width="10" stroke-linecap="round" stroke-linejoin="round" stroke-miterlimit="10" d="M43.27-158.64L-.92-133.13l-44.19-25.51"/><path fill="#FFF" d="M124.4-128.82L0-200.64l-124.41 71.82L0-204.74z"/><path fill="#79BBAE" d="M124.41-131.95v34L0-26.13l-124.4-71.82v-34L0-60.13z"/><path opacity=".25" fill="#231F20" d="M-124.4-131.95L0-60.13l124.41-71.82L0-68.39z"/><path fill="#FFF" d="M-124.4-131.95L0-60.13l124.41-71.82L0-56.03z"/><path fill="#79BBAE" d="M124.41-65.13v34L0 40.69l-124.4-71.82v-34L0 6.69z"/><path opacity=".25" fill="#231F20" d="M-124.4-65.13L0 6.69l124.41-71.82L0-1.57z"/><path fill="#FFF" d="M-124.4-65.13L0 6.69l124.41-71.82L0 10.8z"/><path d="M-114.03-49.14v34l-8.5-4.91v-34.31m245.06.63v33.68l-9 5.2v-34m-227.56-66.96v34l-8.5-4.91v-34.31m48.5 96.89v34l-8.5-4.91v-34.31m8.5-61.45v34l-8.5-4.91v-34.31m205.06-24.37v33.68l-9 5.2v-34m-31 86.79V4.95l-9 5.2v-34m9-71.55v33.68l-9 5.2v-34" fill="#EDD6AE"/><path fill="none" stroke="#231F20" stroke-width="10" stroke-linejoin="round" stroke-miterlimit="10" d="M74.36 56.38h6.32c3.48 0 6.32 4.5 6.32 10v22.81c0 5.5-4.5 10-10 10H-76.57c-5.5 0-10-4.5-10-10V66.38c0-5.5 2.79-10 6.19-10h6.19M44.5 142h-89.32" opacity=".25"/><path fill="none" stroke="#FFF" stroke-width="10" stroke-linecap="round" stroke-linejoin="round" stroke-miterlimit="10" d="M0 158.6v-39.41"/><path fill="none" stroke="#FFF" stroke-width="10" stroke-linejoin="round" stroke-miterlimit="10" d="M74.36 76.38h6.32c3.48 0 6.32 4.5 6.32 10v22.81c0 5.5-4.5 10-10 10H-76.57c-5.5 0-10-4.5-10-10V86.38c0-5.5 2.79-10 6.19-10h6.19"/><path fill="none" stroke="#FFF" stroke-width="10" stroke-linecap="round" stroke-linejoin="round" stroke-miterlimit="10" d="M-51.41 164.81H-91.4m183.23 0H51.84M0 241.87l13.53-41.63H57.3L21.89 174.5l13.53-41.63L0 158.6l-35.42-25.73 13.53 41.63-35.41 25.74h43.77z"/><path opacity=".25" fill="#EDD6AE" d="M-106 68.4v39.44h-16.53v-39.5m245.06 0v39.5H106V68.05"/></symbol><symbol id="17_c" viewBox="-250.5 -250.5 501 501"><path opacity=".25" d="M67.5-107.55V37.03h-135v-144.58L0-146.53z"/><path d="M73.61-85.63v193.47H-73.62V-85.63L0-128.13z"/><path d="M-55.91-44.75v93.9h17.7v-93.9h-17.7zm46.7 0v93.9h17.7v-93.9h-17.7zm46.7 0v93.9h17.7v-93.9h-17.7z" fill="#FFF"/><path fill="none" d="M135 99.25L0 99.36l-135-.11v-222.09L0-200.78l135 77.94z"/><path fill="#FFF" d="M-73.62-65.63L0-108.13l73.61 42.5v-10L0-118.13l-73.62 42.5z"/></symbol><symbol id="17_a" viewBox="-251.5 -251.36 503 503"><path fill="none" stroke="#231F20" stroke-width="3" stroke-miterlimit="10" d="M250-249.86h-500v500h500zm-500 500l500-500m0 500l-500-500"/><path fill="none" stroke="red" stroke-width="10" stroke-miterlimit="10" d="M-173.21 99.36L0 199.36l173.21-100v-200L0-200.64l-173.21 100z"/></symbol><use xlink:href="#17_b" width="501" height="501" x="-250.5" y="-250.36" transform="matrix(1 0 0 -1 256.5 252.334)" overflow="visible"/><use xlink:href="#17_c" width="501" height="501" x="-250.5" y="-250.5" transform="matrix(1 0 0 -1 256.5 252.193)" overflow="visible"/></symbol><symbol viewBox="0 0 500 500" id="18"><symbol id="18_b" viewBox="-250.5 -250.36 501 501"><path fill="none" stroke="#C8C8C8" stroke-width="10" stroke-linecap="round" stroke-linejoin="round" stroke-miterlimit="10" d="M141.83 99.19c5.5 0 10 4.5 10 10V132c0 5.5-4.5 10-10 10H-141.4c-5.5 0-10-4.5-10-10v-22.81c0-5.5 4.5-10 10-10h283.23z"/><path d="M173.21 59.36v-160L0-200.64l-173.21 100v160m0 0h48.81m248.8 0h48.81" fill="none" stroke="#EDD6AE" stroke-width="10" stroke-linecap="round" stroke-linejoin="round" stroke-miterlimit="10"/><path fill="none" stroke="#C8C8C8" stroke-width="10" stroke-linecap="round" stroke-linejoin="round" stroke-miterlimit="10" d="M-92.67-174.13l46.34-30m91.14 0l44.81 30"/><path fill="#7F725E" d="M-135-202.72L0-169.23l135-33.49v310.56h-270z"/><path fill="#CCB697" d="M122.53 107.84V70.38h-245.06v38.52"/><path fill="#EDD6AE" d="M135-202.72v15.19l-135.04 30-135.03-30v-15.19l135.03 30z"/><path fill="#EDD6AE" d="M135-172.34v15.2l-135.04 30-135.03-30v-15.2l135.03 30z"/><path fill="#EDD6AE" d="M-122.53-129.9L0-200.64l122.53 70.74V70.38h-245.06z"/><path opacity=".25" fill="#231F20" d="M-122.53 39.7H-135v10.75h12.47zm257.53 0h-12.47v10.75H135z"/><path d="M-10.47 85.49L0 91.54l10.47-6.05V-194.6L0-200.64l-10.47 6.04zm50.94 0l10.47 6.05 10.47-6.05v-250.68l-10.47-6.04-10.47-6.05zm50-15.11l10.47 6.05 10.47-6.05v-207.13l-10.47-6.04-10.47-6.05zM-61.41 85.49l10.47 6.05 10.47-6.05v-262.77l-10.47 6.05-10.47 6.04zm-50-15.11l10.47 6.05 10.47-6.05v-219.22l-10.47 6.05-10.47 6.04z" fill="#EDD6AE"/><path opacity=".25" fill="#231F20" d="M-122.53-149.84l60.07-34.68 24.93 5.54-85.01 49.08v-19.94zm160.05-29.14l24.93-5.54 60.07 34.68v19.94l-85-49.08z"/><path fill="none" stroke="#C8C8C8" stroke-width="10" stroke-linecap="round" stroke-linejoin="round" stroke-miterlimit="10" d="M-46.33-204.13v43m91.14 1.5v-44.5"/><path opacity=".25" fill="#231F20" d="M-79.01-188.83l13.21 3.27 6.3-4.32-11-4.37zm156.29.43l-13.22 3.27-6.3-4.32 11-4.37z"/><path fill="none" stroke="#C8C8C8" stroke-width="10" stroke-linecap="round" stroke-linejoin="round" stroke-miterlimit="10" d="M43.27-158.64L-.92-133.13l-44.19-25.51"/><path fill="#FFF" d="M124.4-128.82L0-200.64l-124.41 71.82L0-204.74z"/><path fill="#79BBAE" d="M124.41-131.95v34L0-26.13l-124.4-71.82v-34L0-60.13z"/><path opacity=".25" fill="#231F20" d="M-124.4-131.95L0-60.13l124.41-71.82L0-68.39z"/><path fill="#FFF" d="M-124.4-131.95L0-60.13l124.41-71.82L0-56.03z"/><path fill="#79BBAE" d="M124.41-65.13v34L0 40.69l-124.4-71.82v-34L0 6.69z"/><path opacity=".25" fill="#231F20" d="M-124.4-65.13L0 6.69l124.41-71.82L0-1.57z"/><path fill="#FFF" d="M-124.4-65.13L0 6.69l124.41-71.82L0 10.8z"/><path d="M-114.03-49.14v34l-8.5-4.91v-34.31m245.06.63v33.68l-9 5.2v-34m-227.56-66.96v34l-8.5-4.91v-34.31m48.5 96.89v34l-8.5-4.91v-34.31m8.5-61.45v34l-8.5-4.91v-34.31m205.06-24.37v33.68l-9 5.2v-34m-31 86.79V4.95l-9 5.2v-34m9-71.55v33.68l-9 5.2v-34" fill="#EDD6AE"/><path fill="none" stroke="#231F20" stroke-width="10" stroke-linejoin="round" stroke-miterlimit="10" d="M74.36 56.38h6.32c3.48 0 6.32 4.5 6.32 10v22.81c0 5.5-4.5 10-10 10H-76.57c-5.5 0-10-4.5-10-10V66.38c0-5.5 2.79-10 6.19-10h6.19M44.5 142h-89.32" opacity=".25"/><path fill="none" stroke="#FFF" stroke-width="10" stroke-linecap="round" stroke-linejoin="round" stroke-miterlimit="10" d="M0 158.6v-39.41"/><path fill="none" stroke="#FFF" stroke-width="10" stroke-linejoin="round" stroke-miterlimit="10" d="M74.36 76.38h6.32c3.48 0 6.32 4.5 6.32 10v22.81c0 5.5-4.5 10-10 10H-76.57c-5.5 0-10-4.5-10-10V86.38c0-5.5 2.79-10 6.19-10h6.19"/><path fill="none" stroke="#FFF" stroke-width="10" stroke-linecap="round" stroke-linejoin="round" stroke-miterlimit="10" d="M-51.41 164.81H-91.4m183.23 0H51.84M0 241.87l13.53-41.63H57.3L21.89 174.5l13.53-41.63L0 158.6l-35.42-25.73 13.53 41.63-35.41 25.74h43.77z"/><path opacity=".25" fill="#EDD6AE" d="M-106 68.4v39.44h-16.53v-39.5m245.06 0v39.5H106V68.05"/></symbol><symbol id="18_c" viewBox="-250.5 -250.5 501 501"><path opacity=".25" d="M67.5-131.67V36.36h-135v-168.03L0-170.64z"/><path d="M73.62-109.75v217.59H-73.62v-217.59L0-152.25z"/><path d="M-32.2-46.28v93.9h17.7v-93.9h-17.7zm46.7 0v93.9h17.7v-93.9H14.5zm-88.12-43.47L0-132.25l73.62 42.5v-10L0-142.25l-73.62 42.5z" fill="#FFF"/><path fill="#FFF" d="M-73.62-69.75L0-112.25l73.62 42.5v-10L0-122.25l-73.62 42.5z"/></symbol><symbol id="18_a" viewBox="-251.5 -251.36 503 503"><path fill="none" stroke="#231F20" stroke-width="3" stroke-miterlimit="10" d="M250-249.86h-500v500h500zm-500 500l500-500m0 500l-500-500"/><path fill="none" stroke="red" stroke-width="10" stroke-miterlimit="10" d="M-173.21 99.36L0 199.36l173.21-100v-200L0-200.64l-173.21 100z"/></symbol><use xlink:href="#18_b" width="501" height="501" x="-250.5" y="-250.36" transform="matrix(1 0 0 -1 256.5 252.333)" overflow="visible"/><use xlink:href="#18_c" width="501" height="501" x="-250.5" y="-250.5" transform="matrix(1 0 0 -1 256.5 252.192)" overflow="visible"/></symbol><symbol viewBox="0 0 500 500" id="19"><symbol id="19_a" viewBox="-250.5 -250.36 501 501"><path fill="none" stroke="#C8C8C8" stroke-width="10" stroke-linecap="round" stroke-linejoin="round" stroke-miterlimit="10" d="M141.83 99.19c5.5 0 10 4.5 10 10V132c0 5.5-4.5 10-10 10H-141.4c-5.5 0-10-4.5-10-10v-22.81c0-5.5 4.5-10 10-10h283.23z"/><path d="M173.21 59.36v-160L0-200.64l-173.21 100v160m0 0h48.81m248.8 0h48.81" fill="none" stroke="#EDD6AE" stroke-width="10" stroke-linecap="round" stroke-linejoin="round" stroke-miterlimit="10"/><path fill="none" stroke="#C8C8C8" stroke-width="10" stroke-linecap="round" stroke-linejoin="round" stroke-miterlimit="10" d="M-92.67-174.13l46.34-30m91.14 0l44.81 30"/><path fill="#7F725E" d="M-135-202.72L0-169.23l135-33.49v310.56h-270z"/><path fill="#CCB697" d="M122.53 107.84V70.38h-245.06v38.52"/><path fill="#EDD6AE" d="M135-202.72v15.19l-135.04 30-135.03-30v-15.19l135.03 30z"/><path fill="#EDD6AE" d="M135-172.34v15.2l-135.04 30-135.03-30v-15.2l135.03 30z"/><path fill="#EDD6AE" d="M-122.53-129.9L0-200.64l122.53 70.74V70.38h-245.06z"/><path opacity=".25" fill="#231F20" d="M-122.53 39.7H-135v10.75h12.47zm257.53 0h-12.47v10.75H135z"/><path d="M-10.47 85.49L0 91.54l10.47-6.05V-194.6L0-200.64l-10.47 6.04zm50.94 0l10.47 6.05 10.47-6.05v-250.68l-10.47-6.04-10.47-6.05zm50-15.11l10.47 6.05 10.47-6.05v-207.13l-10.47-6.04-10.47-6.05zM-61.41 85.49l10.47 6.05 10.47-6.05v-262.77l-10.47 6.05-10.47 6.04zm-50-15.11l10.47 6.05 10.47-6.05v-219.22l-10.47 6.05-10.47 6.04z" fill="#EDD6AE"/><path opacity=".25" fill="#231F20" d="M-122.53-149.84l60.07-34.68 24.93 5.54-85.01 49.08v-19.94zm160.05-29.14l24.93-5.54 60.07 34.68v19.94l-85-49.08z"/><path fill="none" stroke="#C8C8C8" stroke-width="10" stroke-linecap="round" stroke-linejoin="round" stroke-miterlimit="10" d="M-46.33-204.13v43m91.14 1.5v-44.5"/><path opacity=".25" fill="#231F20" d="M-79.01-188.83l13.21 3.27 6.3-4.32-11-4.37zm156.29.43l-13.22 3.27-6.3-4.32 11-4.37z"/><path fill="none" stroke="#C8C8C8" stroke-width="10" stroke-linecap="round" stroke-linejoin="round" stroke-miterlimit="10" d="M43.27-158.64L-.92-133.13l-44.19-25.51"/><path fill="#FFF" d="M124.4-128.82L0-200.64l-124.41 71.82L0-204.74z"/><path fill="#79BBAE" d="M124.41-131.95v34L0-26.13l-124.4-71.82v-34L0-60.13z"/><path opacity=".25" fill="#231F20" d="M-124.4-131.95L0-60.13l124.41-71.82L0-68.39z"/><path fill="#FFF" d="M-124.4-131.95L0-60.13l124.41-71.82L0-56.03z"/><path fill="#79BBAE" d="M124.41-65.13v34L0 40.69l-124.4-71.82v-34L0 6.69z"/><path opacity=".25" fill="#231F20" d="M-124.4-65.13L0 6.69l124.41-71.82L0-1.57z"/><path fill="#FFF" d="M-124.4-65.13L0 6.69l124.41-71.82L0 10.8z"/><path d="M-114.03-49.14v34l-8.5-4.91v-34.31m245.06.63v33.68l-9 5.2v-34m-227.56-66.96v34l-8.5-4.91v-34.31m48.5 96.89v34l-8.5-4.91v-34.31m8.5-61.45v34l-8.5-4.91v-34.31m205.06-24.37v33.68l-9 5.2v-34m-31 86.79V4.95l-9 5.2v-34m9-71.55v33.68l-9 5.2v-34" fill="#EDD6AE"/><path fill="none" stroke="#231F20" stroke-width="10" stroke-linejoin="round" stroke-miterlimit="10" d="M74.36 56.38h6.32c3.48 0 6.32 4.5 6.32 10v22.81c0 5.5-4.5 10-10 10H-76.57c-5.5 0-10-4.5-10-10V66.38c0-5.5 2.79-10 6.19-10h6.19M44.5 142h-89.32" opacity=".25"/><path fill="none" stroke="#FFF" stroke-width="10" stroke-linecap="round" stroke-linejoin="round" stroke-miterlimit="10" d="M0 158.6v-39.41"/><path fill="none" stroke="#FFF" stroke-width="10" stroke-linejoin="round" stroke-miterlimit="10" d="M74.36 76.38h6.32c3.48 0 6.32 4.5 6.32 10v22.81c0 5.5-4.5 10-10 10H-76.57c-5.5 0-10-4.5-10-10V86.38c0-5.5 2.79-10 6.19-10h6.19"/><path fill="none" stroke="#FFF" stroke-width="10" stroke-linecap="round" stroke-linejoin="round" stroke-miterlimit="10" d="M-51.41 164.81H-91.4m183.23 0H51.84M0 241.87l13.53-41.63H57.3L21.89 174.5l13.53-41.63L0 158.6l-35.42-25.73 13.53 41.63-35.41 25.74h43.77z"/><path opacity=".25" fill="#EDD6AE" d="M-106 68.4v39.44h-16.53v-39.5m245.06 0v39.5H106V68.05"/></symbol><symbol id="19_b" viewBox="-250.5 -250.5 501 501"><path opacity=".25" d="M67.5-161.81V36.36h-135v-198.17L0-200.78z"/><path d="M73.62-139.89V107.9H-73.62v-247.79L0-182.39z"/><path fill="#FFF" d="M-.92 64.7l13.73-42.25h44.42L21.29-3.66l13.73-42.25L-.92-19.8l-35.94-26.11 13.73 42.25-35.94 26.11h44.42zm-72.7-166.98L0-144.78l73.62 42.5v-10L0-154.78l-73.62 42.5z"/><path fill="#FFF" d="M-73.62-82.28L0-124.78l73.62 42.5v-10L0-134.78l-73.62 42.5z"/><path fill="#FFF" d="M-73.62-62.28L0-104.78l73.62 42.5v-10L0-114.78l-73.62 42.5z"/><path fill="#FFF" d="M38.98-92.28L0-69.78l-38.98-22.5v10L0-59.78l38.98-22.5z"/></symbol><use xlink:href="#19_a" width="501" height="501" x="-250.5" y="-250.36" transform="matrix(1 0 0 -1 256.5 252.334)" overflow="visible"/><use xlink:href="#19_b" width="501" height="501" x="-250.5" y="-250.5" transform="matrix(1 0 0 -1 256.5 251.975)" overflow="visible"/></symbol><symbol viewBox="0 0 500 500" id="20"><symbol id="20_b" viewBox="-250.5 -250.36 501 501"><path fill="none" stroke="#C8C8C8" stroke-width="10" stroke-linecap="round" stroke-linejoin="round" stroke-miterlimit="10" d="M141.8 99.36c5.5 0 10 4.5 10 10v22.81c0 5.5-4.5 10-10 10h-283.23c-5.5 0-10-4.5-10-10v-22.81c0-5.5 4.5-10 10-10H141.8z"/><path d="M173.21 59.36v-160L0-200.64l-173.21 100v160m0 0h48.8m248.82 0h48.8" fill="none" stroke="#79BBAE" stroke-width="10" stroke-linecap="round" stroke-linejoin="round" stroke-miterlimit="10"/><path fill="none" stroke="#C8C8C8" stroke-width="10" stroke-linecap="round" stroke-linejoin="round" stroke-miterlimit="10" d="M-92.67-174.13l46.34-30m91.14 0l44.81 30"/><path fill="#0CBF9D" d="M-135-202.72L0-169.23l135-33.49v310.56h-270z"/><path fill="#64998F" d="M122.53 107.84V70.38h-245.06v38.52"/><path fill="#79BBAE" d="M-122.53-129.9L0-200.64l122.53 70.74V70.38h-245.06z"/><path opacity=".25" fill="#231F20" d="M-122.53 39.7H-135v10.75h12.47zm257.53 0h-12.47v10.75H135zm-257.53-189.54l60.07-34.68 24.94 5.54-85.01 49.08v-19.94zm160.05-29.14l24.94-5.54 60.07 34.68v19.94l-85.01-49.08zm-116.53-9.85l13.21 3.27 6.3-4.32-11-4.37zm156.29.43l-13.22 3.27-6.3-4.32 11-4.37z"/><path d="M-10.47 85.49L0 91.54l10.47-6.05V-194.6L0-200.64l-10.47 6.04zm50.94 0l10.47 6.05 10.47-6.05v-250.68l-10.47-6.04-10.47-6.05zm50-15.11l10.47 6.05 10.47-6.05v-207.13l-10.47-6.04-10.47-6.05zM-61.41 85.49l10.47 6.05 10.47-6.05v-262.77l-10.47 6.05-10.47 6.04zm-50-15.11l10.47 6.05 10.47-6.05v-219.22l-10.47 6.05-10.47 6.04z" fill="#79BBAE"/><path fill="none" stroke="#231F20" stroke-width="10" stroke-linejoin="round" stroke-miterlimit="10" d="M74.33 56.55h6.32c3.48 0 6.32 4.5 6.32 10v22.81c0 5.5-4.5 10-10 10H-76.6c-5.5 0-10-4.5-10-10V66.55c0-5.5 2.79-10 6.19-10h6.19m118.69 85.62h-89.32" opacity=".25"/><path fill="none" stroke="#FFF" stroke-width="10" stroke-linecap="round" stroke-linejoin="round" stroke-miterlimit="10" d="M-.03 142.17v-22.81"/><path fill="none" stroke="#FFF" stroke-width="10" stroke-linejoin="round" stroke-miterlimit="10" d="M74.33 76.55h6.32c3.48 0 6.32 4.5 6.32 10v22.81c0 5.5-4.5 10-10 10H-76.6c-5.5 0-10-4.5-10-10V86.55c0-5.5 2.79-10 6.19-10h6.19"/><path d="M-.95 221.58h-28.72l-22.95-30.31 50.93-49.1m-50.93 49.1H50.72m-52.41-49.1l-19.77 49.1m0 0l12.42 30.31m8.09 0h28.72l22.95-30.31-50.93-49.1m0 0l19.77 49.1m0 0L7.14 221.58" fill="none" stroke="#FFF" stroke-width="10" stroke-linecap="round" stroke-linejoin="round" stroke-miterlimit="10"/><path opacity=".25" fill="#79BBAE" d="M-106 68.4v39.44h-16.53v-39.5m245.06 0v39.5H106V68.05"/><path fill="#0CBF9D" d="M124.41-151.95v34L0-46.13l-124.41-71.82v-34L0-80.13z"/><path opacity=".25" fill="#231F20" d="M-124.41-151.95L0-80.13l124.41-71.82L0-88.39z"/><path fill="#FFF" d="M-124.41-151.95L0-80.13l124.41-71.82L0-76.03z"/><path fill="#0CBF9D" d="M124.41-85.13v34L0 20.69l-124.41-71.82v-34L0-13.31z"/><path opacity=".25" fill="#231F20" d="M-124.41-85.13L0-13.31l124.41-71.82L0-21.57z"/><path fill="#FFF" d="M-124.41-85.13L0-13.31l124.41-71.82L0-9.2z"/><path fill="#0CBF9D" d="M124.41-19.21v33.99L0 86.61l-124.41-71.83v-33.99L0 52.61z"/><path opacity=".25" fill="#231F20" d="M-124.41-19.21L0 52.61l124.41-71.82L0 44.35z"/><path fill="#FFF" d="M-124.41-19.21L0 52.61l124.41-71.82L0 56.71z"/><path fill="none" stroke="#C8C8C8" stroke-width="10" stroke-linecap="round" stroke-linejoin="round" stroke-miterlimit="10" d="M44.81-204.13v14.23c0 7.82-.35 14.23-.77 14.23s-10.71 5.74-22.87 12.76-32.04 7.02-44.19 0-22.37-12.76-22.71-12.76-.61-6.41-.61-14.23v-14.23"/></symbol><symbol id="20_a" viewBox="-251.5 -251.36 503 503"><path fill="none" stroke="#231F20" stroke-width="3" stroke-miterlimit="10" d="M250-249.86h-500v500h500zm-500 500l500-500m0 500l-500-500"/><path fill="none" stroke="red" stroke-width="10" stroke-miterlimit="10" d="M-173.21 99.36L0 199.36l173.21-100v-200L0-200.64l-173.21 100z"/></symbol><use xlink:href="#20_b" width="501" height="501" x="-250.5" y="-250.36" transform="matrix(1 0 0 -1 256.5 252.334)" overflow="visible"/><path opacity=".25" d="M324 412.31V214.14H189v198.17l67.5 38.97z"/><path d="M330.12 390.39V142.6H182.88v247.79l73.62 42.5z"/><path fill="#79BBAE" d="M255.58 185.8l13.73 42.25h44.42l-35.94 26.11 13.73 42.25-35.94-26.11-35.94 26.11 13.73-42.25-35.94-26.11h44.42z"/><path fill="#FFF" d="M182.88 352.78l73.62 42.5 73.62-42.5v10l-73.62 42.5-73.62-42.5z"/><path fill="#FFF" d="M182.88 332.78l73.62 42.5 73.62-42.5v10l-73.62 42.5-73.62-42.5z"/><path fill="#FFF" d="M182.88 312.78l73.62 42.5 73.62-42.5v10l-73.62 42.5-73.62-42.5z"/><path fill="#FFF" d="M295.48 342.78l-38.98-22.5-38.98 22.5v-10l38.98-22.5 38.98 22.5z"/></symbol></defs><use id="0-usage" xlink:href="#0" class="sprite-symbol-usage"/><use id="1-usage" xlink:href="#1" class="sprite-symbol-usage"/><use id="2-usage" xlink:href="#2" class="sprite-symbol-usage"/><use id="3-usage" xlink:href="#3" class="sprite-symbol-usage"/><use id="4-usage" xlink:href="#4" class="sprite-symbol-usage"/><use id="5-usage" xlink:href="#5" class="sprite-symbol-usage"/><use id="6-usage" xlink:href="#6" class="sprite-symbol-usage"/><use id="7-usage" xlink:href="#7" class="sprite-symbol-usage"/><use id="8-usage" xlink:href="#8" class="sprite-symbol-usage"/><use id="9-usage" xlink:href="#9" class="sprite-symbol-usage"/><use id="10-usage" xlink:href="#10" class="sprite-symbol-usage"/><use id="11-usage" xlink:href="#11" class="sprite-symbol-usage"/><use id="12-usage" xlink:href="#12" class="sprite-symbol-usage"/><use id="13-usage" xlink:href="#13" class="sprite-symbol-usage"/><use id="14-usage" xlink:href="#14" class="sprite-symbol-usage"/><use id="15-usage" xlink:href="#15" class="sprite-symbol-usage"/><use id="16-usage" xlink:href="#16" class="sprite-symbol-usage"/><use id="17-usage" xlink:href="#17" class="sprite-symbol-usage"/><use id="18-usage" xlink:href="#18" class="sprite-symbol-usage"/><use id="19-usage" xlink:href="#19" class="sprite-symbol-usage"/><use id="20-usage" xlink:href="#20" class="sprite-symbol-usage"/></svg>